<?xml version="1.0" standalone="no"?>
<!DOCTYPE svg PUBLIC "-//W3C//DTD SVG 20010904//EN"
 "http://www.w3.org/TR/2001/REC-SVG-20010904/DTD/svg10.dtd">
<svg version="1.0" xmlns="http://www.w3.org/2000/svg"
 width="1042.000000pt" height="1042.000000pt" viewBox="0 0 1042.000000 1042.000000"
 preserveAspectRatio="xMidYMid meet">
<metadata>
Created by potrace 1.14, written by Peter Selinger 2001-2017
</metadata>
<g transform="translate(0.000000,1042.000000) scale(0.100000,-0.100000)"
fill="#000000" stroke="none">
<path d="M4852 10409 c-1253 -85 -2435 -623 -3327 -1514 -1140 -1140 -1684
-2728 -1484 -4335 123 -996 527 -1919 1180 -2701 211 -252 525 -554 796 -766
142 -110 444 -312 612 -408 956 -546 2053 -771 3166 -649 1392 152 2682 881
3547 2004 914 1187 1269 2723 972 4210 -175 875 -583 1699 -1183 2389 -140
161 -408 424 -570 560 -615 514 -1325 877 -2084 1065 -523 130 -1091 181
-1625 145z m-52 -1191 c248 -122 476 -197 740 -242 l125 -22 12 -95 c18 -142
43 -437 50 -590 l6 -136 -129 -5 c-149 -6 -537 6 -687 22 -56 6 -163 20 -239
31 l-136 21 -7 70 c-13 128 15 525 55 793 26 167 40 237 48 233 4 -2 77 -38
162 -80z m-598 -1087 c389 -120 929 -174 1524 -151 148 5 296 13 330 16 l61 6
42 -58 c23 -32 53 -93 68 -138 24 -73 27 -95 27 -231 0 -127 -3 -159 -20 -205
l-21 -55 -59 -7 c-32 -3 -186 -12 -340 -18 -617 -26 -1160 32 -1563 167 -185
62 -195 70 -246 223 -67 202 -54 361 39 458 17 19 37 31 46 28 8 -2 59 -18
112 -35z m38 -831 c408 -132 968 -188 1600 -159 416 19 380 21 407 -26 12 -22
32 -76 45 -120 29 -105 32 -291 5 -377 -16 -53 -19 -57 -55 -62 -204 -31
-1000 -42 -1247 -18 -183 19 -432 58 -555 88 -139 33 -262 71 -283 87 -23 17
-81 139 -108 227 -31 97 -33 263 -6 325 27 59 47 87 60 81 7 -3 68 -23 137
-46z m21 -785 c340 -98 744 -145 1239 -145 213 1 304 4 655 26 l111 7 32 -61
c68 -128 96 -313 68 -453 -18 -89 -76 -223 -100 -232 -8 -3 -120 -11 -248 -18
-384 -20 -851 -1 -1146 47 -292 46 -617 141 -647 188 -27 43 -104 234 -125
310 -29 104 -25 247 7 319 12 26 24 47 27 47 2 0 60 -16 127 -35z m-48 -814
c102 -42 249 -88 375 -116 39 -9 72 -19 72 -22 0 -3 -51 -91 -114 -197 -433
-729 -595 -1189 -573 -1633 31 -615 431 -1182 955 -1352 128 -42 221 -55 377
-55 206 0 377 36 539 114 319 153 538 428 619 774 30 132 30 368 -1 524 -98
488 -365 1095 -704 1598 -48 73 -88 134 -88 136 0 3 100 8 223 12 122 4 266
11 320 14 l98 7 122 -125 c191 -195 364 -411 599 -745 490 -697 635 -1264 478
-1869 -197 -763 -825 -1369 -1626 -1572 -204 -51 -341 -68 -559 -67 -208 0
-324 14 -521 62 -711 174 -1373 693 -1714 1343 -277 529 -317 1079 -120 1668
186 556 542 1067 1020 1463 58 48 110 85 115 83 6 -3 54 -23 108 -45z"/>
</g>
</svg>
